# xmcd CD database file
#
# Track frame offsets:
#	150
#	27498
#	46227
#	77442
#	99874
#	128046
#	154049
#	186753
#	201043
#	217612
#	251926
#	278747
#
# Disc length: 3975 seconds
#
# Revision: 0
# Processed by: cddbd v1.5.2PL0 Copyright (c) Steve Scherf et al.
# Submitted via: CDex 1.51
#
DISCID=950f850c
DTITLE=European Jazz Trio - Barcelona's Flame
DYEAR=2007
DGENRE=Jazz
TTITLE0=Day Dreams
TTITLE1=Strawberry Fields Forever
TTITLE2=Concerto de Aranjues
TTITLE3=If You Leave Me Now
TTITLE4=My Parents
TTITLE5=Little Princess
TTITLE6=Poco Paco
TTITLE7=Gipsy In My Soul
TTITLE8=Comecar De Novo
TTITLE9=Stella By Starlight
TTITLE10=All Or Nothing At All
TTITLE11=Rock Beach(Barcelona's Flame)
EXTD=YEAR: 2007
EXTT0=
EXTT1=
EXTT2=
EXTT3=
EXTT4=
EXTT5=
EXTT6=
EXTT7=
EXTT8=
EXTT9=
EXTT10=
EXTT11=
PLAYORDER=
